{"accessors":[{"bufferView":0,"componentType":5123,"count":1644,"max":[560],"min":[0],"type":"SCALAR"},{"bufferView":1,"componentType":5126,"count":561,"max":[0.013376164250075817,0.01387065276503563,0.031592801213264465],"min":[-0.013376147486269474,0.00012090429663658142,-0.16308927536010742],"type":"VEC3"},{"bufferView":2,"componentType":5126,"count":561,"max":[1.0,1.0,1.0],"min":[-1.0,-1.0,-1.0],"type":"VEC3"},{"bufferView":3,"componentType":5126,"count":561,"max":[1.0,1.0,1.0,1.0],"min":[-1.0,-1.0,-1.0,-1.0],"type":"VEC4"},{"bufferView":4,"componentType":5126,"count":561,"max":[0.9981841444969177,0.9982581712538376],"min":[0.0017406438710168004,0.0017469525337219238],"type":"VEC2"}],"asset":{"generator":"Soft8Soft Verge3D for Blender add-on","version":"2.0"},"bufferViews":[{"buffer":0,"byteLength":3288,"byteOffset":0,"target":34963},{"buffer":0,"byteLength":6732,"byteOffset":3288,"target":34962},{"buffer":0,"byteLength":6732,"byteOffset":10020,"target":34962},{"buffer":0,"byteLength":8976,"byteOffset":16752,"target":34962},{"buffer":0,"byteLength":4488,"byteOffset":25728,"target":34962}],"buffers":[{"byteLength":30216,"uri":"FK_BRNO_PSD_DIAMOND_SIGHTS.bin"}],"cameras":[{"extensions":{"S8S_v3d_camera_data":{"controls":"ORBIT","enablePan":true,"moveSpeed":1,"orbitMaxDistance":10000,"orbitMaxPolarAngle":3.141592653589793,"orbitMinDistance":0,"orbitMinPolarAngle":0,"orbitTarget":[6.574823379516602,0.6995778679847717,1.9073486328125e-06],"rotateSpeed":1,"viewportFitInitialAspect":1,"viewportFitType":"VERTICAL"}},"name":"__DEFAULT__","perspective":{"aspectRatio":1,"yfov":0.7853981633974483,"zfar":1000.0,"znear":0.009999999776482582},"type":"perspective"}],"extensions":{"S8S_v3d_data":{"lights":[{"color":[1.0,1.0,1.0],"intensity":1.0,"name":"Sun","profile":"blender","shadow":{"bias":-0.0018,"cameraFar":100,"cameraFov":0,"cameraNear":0.1,"csm":{"maxDistance":200.0},"enabled":true,"expBias":2.5,"mapSize":1024,"radius":1.0,"slopeScaledBias":2.5},"type":"directional"}]}},"extensionsUsed":["S8S_v3d_texture_data","S8S_v3d_material_data","S8S_v3d_camera_data","S8S_v3d_data","S8S_v3d_mesh_data","S8S_v3d_node_data","S8S_v3d_scene_data"],"images":[{"uri":"low_FK_BRNO_PSD_SIGHTS_BaseColor.png"},{"uri":"low_FK_BRNO_PSD_SIGHTS_OcclusionRoughnessMetallic.png"},{"uri":"low_FK_BRNO_PSD_SIGHTS_Emissive.png"},{"uri":"low_FK_BRNO_PSD_SIGHTS_Normal.png"}],"materials":[{"extensions":{"S8S_v3d_material_data":{"gtaoVisible":true,"materialIndex":0,"nodeGraph":{"edges":[{"fromNode":0,"fromOutput":0,"toInput":0,"toNode":2},{"fromNode":1,"fromOutput":0,"toInput":22,"toNode":0},{"fromNode":4,"fromOutput":0,"toInput":0,"toNode":0},{"fromNode":7,"fromOutput":0,"toInput":1,"toNode":1},{"fromNode":6,"fromOutput":0,"toInput":19,"toNode":0},{"fromNode":5,"fromOutput":0,"toInput":0,"toNode":3},{"fromNode":3,"fromOutput":1,"toInput":9,"toNode":0},{"fromNode":3,"fromOutput":2,"toInput":6,"toNode":0}],"nodes":[{"inputs":[[0.0,0.0020775063894689083,0.8000000715255737,1.0],0.0,[1.0,0.20000000298023224,0.10000000149011612],[0.800000011920929,0.800000011920929,0.800000011920929,1.0],1.399999976158142,0.0,0.0,0.5,0.0,0.5,0.0,0.0,0.0,0.5,0.0,0.029999999329447746,1.4500000476837158,0.0,0.0,[0.0,0.0,0.0,1.0],1.0,1.0,[0.0,0.0,0.0],[0.0,0.0,0.0],[0.0,0.0,0.0]],"is_active_output":false,"name":"Principled BSDF","outputs":[[0,0,0,0]],"type":"BSDF_PRINCIPLED_BL"},{"inputs":[0.0,[0.5,0.5,1.0,1.0]],"is_active_output":false,"name":"Normal Map","outputs":[[0.0,0.0,0.0]],"type":"NORMAL_MAP_BL","uvLayer":""},{"inputs":[[0,0,0,0],[0,0,0,0],[0.0,0.0,0.0]],"is_active_output":true,"name":"Material Output","outputs":[],"type":"OUTPUT_MATERIAL_BL"},{"inputs":[[0.800000011920929,0.800000011920929,0.800000011920929,1.0]],"is_active_output":false,"name":"Separate RGB","outputs":[0.0,0.0,0.0],"type":"SEPRGB_BL"},{"inputs":[[0.0,0.0,0.0]],"is_active_output":false,"name":"Image Texture","outputs":[[0.0,0.0,0.0,0.0],0.0],"projection":"FLAT","projectionBlend":0.0,"texture":0,"type":"TEX_IMAGE_BL"},{"inputs":[[0.0,0.0,0.0]],"is_active_output":false,"name":"Image Texture.001","outputs":[[0.0,0.0,0.0,0.0],0.0],"projection":"FLAT","projectionBlend":0.0,"texture":1,"type":"TEX_IMAGE_BL"},{"inputs":[[0.0,0.0,0.0]],"is_active_output":false,"name":"Image Texture.002","outputs":[[0.0,0.0,0.0,0.0],0.0],"projection":"FLAT","projectionBlend":0.0,"texture":2,"type":"TEX_IMAGE_BL"},{"inputs":[[0.0,0.0,0.0]],"is_active_output":false,"name":"Image Texture.003","outputs":[[0.0,0.0,0.0,0.0],0.0],"projection":"FLAT","projectionBlend":0.0,"texture":3,"type":"TEX_IMAGE_BL"}]},"useCastShadows":true}},"name":"FK_BRNO_PSD_SIGHTS"},{"extensions":{"S8S_v3d_material_data":{"gtaoVisible":true,"materialIndex":0,"nodeGraph":{"edges":[{"fromNode":0,"fromOutput":0,"toInput":0,"toNode":3},{"fromNode":1,"fromOutput":0,"toInput":0,"toNode":0},{"fromNode":2,"fromOutput":0,"toInput":1,"toNode":0}],"nodes":[{"blendType":"MIX","inputs":[0.5,[0.5,0.5,0.5,1.0],[0.0,0.0,0.0,1.0]],"is_active_output":false,"name":"Mix","outputs":[[0.0,0.0,0.0,0.0]],"type":"MIX_RGB_BL","useClamp":false},{"inputs":[],"is_active_output":false,"name":"Light Path","outputs":[0.0,0.0,0.0,0.0,0.0,0.0,0.0,0.0,0.0,0.0,0.0,0.0,0.0],"type":"LIGHT_PATH_BL"},{"inputs":[[0.0,0.0,0.0]],"is_active_output":false,"name":"Environment Texture","outputs":[[0.0,0.0,0.0,0.0]],"projection":"EQUIRECTANGULAR","type":"TEX_ENVIRONMENT_NONE_BL"},{"inputs":[[0.05087608844041824,0.05087608844041824,0.05087608844041824,1.0],1.0],"is_active_output":false,"name":"Background","outputs":[[0,0,0,0]],"type":"BACKGROUND_BL"},{"inputs":[[0,0,0,0],[0,0,0,0]],"is_active_output":true,"name":"World Output","outputs":[],"type":"OUTPUT_WORLD_BL"}]},"useCastShadows":true}},"name":"Verge3D_Environment_World"}],"meshes":[{"extensions":{"S8S_v3d_mesh_data":{"colorLayers":{},"uvLayers":{"UVMap":"TEXCOORD_0"}}},"name":"Cube.066","primitives":[{"attributes":{"NORMAL":2,"POSITION":1,"TANGENT":3,"TEXCOORD_0":4},"indices":0,"material":0,"mode":4}]}],"nodes":[{"children":[3],"extensions":{"S8S_v3d_node_data":{"frustumCulling":true,"groupNames":[],"hidden":false,"hidpiCompositing":false,"objectColor":[0.800000011920929,0.800000011920929,0.800000011920929],"objectIndex":0,"renderOrder":0,"useShadows":true}},"mesh":0,"name":"DIAMOND_SIGHTS","rotation":[-8.881784197001252e-16,-0.7071068286895752,8.881783138210068e-16,0.7071067094802856],"scale":[100.0,100.0,100.0]},{"extensions":{"S8S_v3d_node_data":{"frustumCulling":true,"groupNames":[],"hidden":false,"hidpiCompositing":false,"light":0,"objectColor":[1.0,1.0,1.0],"objectIndex":0,"renderOrder":0}},"name":"Sun","rotation":[-0.7071068286895752,0.0,0.0,0.7071068286895752],"scale":[1.0,0.9999999403953552,0.9999999403953552],"translation":[0.24445271492004395,0.2091708481311798,-0.3036985397338867]},{"children":[5],"extensions":{"S8S_v3d_node_data":{"frustumCulling":true,"groupNames":[],"hidden":false,"hidpiCompositing":false,"objectColor":[1.0,1.0,1.0],"objectIndex":0,"renderOrder":0}},"name":"ADS_Camera","translation":[-0.23246023058891296,0.00962546095252037,-2.027899722515988e-37]},{"children":[2],"name":"v3d_Proxy_Node_0_ADS_Camera","rotation":[8.881784197001252e-16,0.7071068286895752,-8.881783138210068e-16,0.7071067094802856]},{"extensions":{"S8S_v3d_node_data":{"frustumCulling":true,"groupNames":[],"hidden":false,"hidpiCompositing":false,"objectColor":[1.0,1.0,1.0],"objectIndex":0,"renderOrder":0}},"name":"ADS_Target","translation":[0.37901586294174194,-0.00025257974630221725,6.938893903907228e-18]},{"children":[4],"name":"v3d_Proxy_Node_0_ADS_Target"},{"camera":0,"name":"__DEFAULT_CAMERA__","rotation":[-0.11208491772413254,0.22008292376995087,0.025466619059443474,0.9686856865882874],"scale":[1.0,0.9999999403953552,0.9999999403953552],"translation":[17.48248291015625,6.620719909667969,22.765718460083008]}],"samplers":[{}],"scene":0,"scenes":[{"extensions":{"S8S_v3d_scene_data":{"aaMethod":"AUTO","iblEnvironmentMode":"PMREM","physicallyCorrectLights":true,"pmremMaxTileSize":512,"shadowMap":{"esmDistanceScale":1.0,"renderReverseSided":false,"renderSingleSided":true,"type":"PCFPOISSON"},"toneMapping":{"type":"filmicBlender"},"worldMaterial":1}},"extras":{"animFrameRate":24,"coordSystem":"Z_UP_RIGHT"},"name":"Scene","nodes":[0,1,6]}],"textures":[{"extensions":{"S8S_v3d_texture_data":{"colorSpace":"srgb"}},"name":"low_FK_BRNO_PSD_SIGHTS_BaseColor.png","sampler":0,"source":0},{"extensions":{"S8S_v3d_texture_data":{"colorSpace":"srgb"}},"name":"low_FK_BRNO_PSD_SIGHTS_OcclusionRoughnessMetallic.png","sampler":0,"source":1},{"extensions":{"S8S_v3d_texture_data":{"colorSpace":"srgb"}},"name":"low_FK_BRNO_PSD_SIGHTS_Emissive.png","sampler":0,"source":2},{"extensions":{"S8S_v3d_texture_data":{"colorSpace":"srgb"}},"name":"low_FK_BRNO_PSD_SIGHTS_Normal.png","sampler":0,"source":3}]}
