{"accessors":[{"bufferView":0,"componentType":5123,"count":2280,"max":[438],"min":[0],"type":"SCALAR"},{"bufferView":1,"componentType":5126,"count":439,"max":[330.8212890625,327.430419921875,330.8212890625],"min":[-330.821533203125,-47.69044494628906,-330.821533203125],"type":"VEC3"},{"bufferView":2,"componentType":5126,"count":439,"max":[0.9999955892562866,1.0,0.9999955892562866],"min":[-0.9999954700469971,-1.0,-0.9999954104423523],"type":"VEC3"},{"bufferView":3,"componentType":5126,"count":439,"max":[1.0000001192092896,1.0],"min":[0.0,0.0],"type":"VEC2"},{"bufferView":4,"componentType":5123,"count":336,"max":[239],"min":[0],"type":"SCALAR"},{"bufferView":5,"componentType":5126,"count":240,"max":[0.7178799510002136,0.7178799510002136,0.7178798913955688],"min":[-0.7178798913955688,-0.7178799510002136,-0.7178798913955688],"type":"VEC3"},{"bufferView":6,"componentType":5126,"count":240,"max":[0.908663272857666,0.9775986671447754,0.9086633324623108],"min":[-0.9086633324623108,-0.9775986671447754,-0.9086633324623108],"type":"VEC3"},{"bufferView":7,"componentType":5126,"count":240,"max":[1.0,1.0],"min":[0.0,0.0],"type":"VEC2"},{"bufferView":8,"componentType":5123,"count":336,"max":[239],"min":[0],"type":"SCALAR"},{"bufferView":9,"componentType":5126,"count":240,"max":[0.7178799510002136,0.7178799510002136,0.7178798913955688],"min":[-0.7178798913955688,-0.7178799510002136,-0.7178798913955688],"type":"VEC3"},{"bufferView":10,"componentType":5126,"count":240,"max":[0.908663272857666,0.9775986671447754,0.9086633324623108],"min":[-0.9086633324623108,-0.9775986671447754,-0.9086633324623108],"type":"VEC3"},{"bufferView":11,"componentType":5126,"count":240,"max":[1.0,1.0],"min":[0.0,0.0],"type":"VEC2"}],"asset":{"copyright":null,"generator":"Soft8Soft Verge3D for Maya plug-in","version":"2.0"},"bufferViews":[{"buffer":0,"byteLength":4560,"byteOffset":0,"target":34963},{"buffer":0,"byteLength":5268,"byteOffset":4560,"target":34962},{"buffer":0,"byteLength":5268,"byteOffset":9828,"target":34962},{"buffer":0,"byteLength":3512,"byteOffset":15096,"target":34962},{"buffer":0,"byteLength":672,"byteOffset":18608,"target":34963},{"buffer":0,"byteLength":2880,"byteOffset":19280,"target":34962},{"buffer":0,"byteLength":2880,"byteOffset":22160,"target":34962},{"buffer":0,"byteLength":1920,"byteOffset":25040,"target":34962},{"buffer":0,"byteLength":672,"byteOffset":26960,"target":34963},{"buffer":0,"byteLength":2880,"byteOffset":27632,"target":34962},{"buffer":0,"byteLength":2880,"byteOffset":30512,"target":34962},{"buffer":0,"byteLength":1920,"byteOffset":33392,"target":34962}],"buffers":[{"byteLength":35312,"uri":"main.bin"}],"cameras":[{"extensions":{"S8S_v3d_camera_data":{"controls":"ORBIT","enablePan":false,"moveSpeed":1.0,"orbitMaxDistance":200.0,"orbitMaxPolarAngle":3.141592653589793,"orbitMaxZoom":100.0,"orbitMinDistance":50.0,"orbitMinPolarAngle":0.0,"orbitMinZoom":0.009999999776482582,"orbitTarget":[0.39728164672870037,33.64605522155729,-1.7740649041285224],"rotateSpeed":1.0,"viewportFitInitialAspect":1.5,"viewportFitType":"HORIZONTAL"}},"name":"perspShape","perspective":{"aspectRatio":1.5,"yfov":0.6605947096585074,"zfar":100000.0,"znear":1.0},"type":"perspective"}],"extensions":{"S8S_v3d_data":{"lights":[]}},"extensionsUsed":["S8S_v3d_texture_data","S8S_v3d_material_data","S8S_v3d_data","S8S_v3d_camera_data","S8S_v3d_node_data","S8S_v3d_scene_data"],"images":[{"mimeType":"image/vnd.radiance","uri":"HDRI_4.hdr"},{"mimeType":"image/vnd.radiance","uri":"HDRI_1.hdr"},{"mimeType":"image/vnd.radiance","uri":"HDRI_4.hdr"}],"materials":[{"extensions":{"S8S_v3d_material_data":{"depthTest":false,"depthWrite":false,"gtaoVisible":true,"nodeGraph":{"edges":[{"fromNode":1,"fromOutput":0,"toInput":0,"toNode":0},{"fromNode":2,"fromOutput":1,"toInput":0,"toNode":1},{"fromNode":3,"fromOutput":0,"toInput":0,"toNode":2}],"nodes":[{"inputs":[[0.0,0.0,0.0,1],[0,0,0,0],[0,0,0]],"is_active_output":true,"name":"M_bg_1SG","outputs":[],"type":"SHADING_ENGINE_MY"},{"inputs":[[0.0,0.0,0.0],[0.0,0.0,0.0],[1.0,1.0,1.0],[0.0,0.0,0.0]],"name":"M_bg_1","outputs":[[0.0,0.0,0.0],[0.0,0.0,0.0],[1.0,1.0,1.0],[0.0,0.0,0.0]],"type":"SURFACE_SHADER_MY"},{"inputs":[[0.0,0.0]],"name":"file3","outputs":[1.0,[0.0,0.0,0.0],[2048.0,1024.0],[0.0,0.0,0.0]],"texture":0,"type":"FILE_MY"},{"inputs":[[0.0,0.0],[1.0,1.0],0.0],"name":"place2dTexture5","outputs":[[0.0,0.0]],"type":"PLACE_2D_TEXTURE_MY","uvIndex":0}]},"profile":"maya"}},"name":"M_bg_1"},{"extensions":{"S8S_v3d_material_data":{"depthTest":false,"depthWrite":false,"gtaoVisible":true,"nodeGraph":{"edges":[{"fromNode":1,"fromOutput":0,"toInput":0,"toNode":0},{"fromNode":2,"fromOutput":1,"toInput":0,"toNode":1},{"fromNode":3,"fromOutput":0,"toInput":0,"toNode":2}],"nodes":[{"inputs":[[0.0,0.0,0.0,1],[0,0,0,0],[0,0,0]],"is_active_output":true,"name":"M_bg_2SG","outputs":[],"type":"SHADING_ENGINE_MY"},{"inputs":[[0.0,0.0,0.0],[0.0,0.0,0.0],[1.0,1.0,1.0],[0.0,0.0,0.0]],"name":"M_bg_2","outputs":[[0.0,0.0,0.0],[0.0,0.0,0.0],[1.0,1.0,1.0],[0.0,0.0,0.0]],"type":"SURFACE_SHADER_MY"},{"inputs":[[0.0,0.0]],"name":"file4","outputs":[1.0,[0.0,0.0,0.0],[2048.0,1024.0],[0.0,0.0,0.0]],"texture":1,"type":"FILE_MY"},{"inputs":[[0.0,0.0],[1.0,1.0],0.0],"name":"place2dTexture6","outputs":[[0.0,0.0]],"type":"PLACE_2D_TEXTURE_MY","uvIndex":0}]},"profile":"maya"}},"name":"M_bg_2"},{"extensions":{"S8S_v3d_material_data":{"nodeGraph":{"edges":[{"fromNode":1,"fromOutput":1,"toInput":0,"toNode":0},{"fromNode":2,"fromOutput":0,"toInput":0,"toNode":1}],"nodes":[{"inputs":[[0.0,0.0,0.0],4.0],"is_active_output":true,"name":"aiSkyDomeLightShape1","outputs":[],"type":"SKYDOME_LIGHT_AR"},{"inputs":[[0.0,0.0]],"name":"file3","outputs":[1.0,[0.0,0.0,0.0],[2048.0,1024.0],[0.0,0.0,0.0]],"texture":0,"type":"FILE_MY"},{"inputs":[[0.0,0.0],[1.0,1.0],0.0],"name":"place2dTexture5","outputs":[[0.0,0.0]],"type":"PLACE_2D_TEXTURE_MY","uvIndex":0}]},"profile":"maya"}},"name":"Verge3D_Environment"}],"meshes":[{"name":"bg_Shape1","primitives":[{"attributes":{"NORMAL":2,"POSITION":1,"TEXCOORD_0":3},"indices":0,"material":0,"mode":4}]},{"name":"mat_Shape2","primitives":[{"attributes":{"NORMAL":6,"POSITION":5,"TEXCOORD_0":7},"indices":4,"material":1,"mode":4}]},{"name":"mat_Shape1","primitives":[{"attributes":{"NORMAL":10,"POSITION":9,"TEXCOORD_0":11},"indices":8,"material":0,"mode":4}]}],"nodes":[{"extensions":{"S8S_v3d_node_data":{"frustumCulling":true,"hidden":false,"hidpiCompositing":false,"renderOrder":0,"useCastShadows":false,"useShadows":false}},"mesh":0,"name":"bg_1","rotation":[0.0,0.0,0.0,1.0],"scale":[1.0,1.0,1.0],"translation":[0.0,18.109201905944605,0.0]},{"extensions":{"S8S_v3d_node_data":{"groupNames":["defaultLightSet"],"hidden":false,"hidpiCompositing":false}},"name":"aiSkyDomeLight1","rotation":[0.0,0.0,0.0,1.0],"scale":[1.0,1.0,1.0],"translation":[0.0,0.0,0.0]},{"extensions":{"S8S_v3d_node_data":{"groupNames":["defaultLightSet"],"hidden":true,"hidpiCompositing":false}},"name":"aiSkyDomeLight2","rotation":[0.0,0.0,0.0,1.0],"scale":[1.0,1.0,1.0],"translation":[0.0,0.0,0.0]},{"extensions":{"S8S_v3d_node_data":{"frustumCulling":true,"hidden":true,"hidpiCompositing":false,"renderOrder":0,"useCastShadows":true,"useShadows":true}},"mesh":1,"name":"mat_2","rotation":[0.0,0.0,0.0,1.0],"scale":[1.0,1.0,1.0],"translation":[0.0,0.0,0.0]},{"extensions":{"S8S_v3d_node_data":{"frustumCulling":true,"hidden":true,"hidpiCompositing":false,"renderOrder":0,"useCastShadows":true,"useShadows":true}},"mesh":2,"name":"mat_1","rotation":[0.0,0.0,0.0,1.0],"scale":[1.0,1.0,1.0],"translation":[0.0,0.0,0.0]},{"camera":0,"extensions":{"S8S_v3d_node_data":{"hidden":true,"hidpiCompositing":false}},"name":"persp","rotation":[-0.09603098516741819,-0.14367480405482125,-0.014009405667091857,0.9848549827870288],"scale":[1.0,1.0,1.0],"translation":[-45.8690715832704,65.53137139751693,153.42333127037182]}],"samplers":[{}],"scene":0,"scenes":[{"extensions":{"S8S_v3d_scene_data":{"aaMethod":"AUTO","iblEnvironmentMode":"PMREM","physicallyCorrectLights":true,"pmremMaxTileSize":256,"postprocessing":[{"bentNormals":false,"bounceApprox":false,"distance":1.0,"factor":3.0,"precision":1.0,"type":"ao"},{"edgeGlow":0.0,"edgeStrength":3.0,"edgeThickness":1.0,"hiddenEdgeColor":[0.0,0.0,0.0,1],"pulsePeriod":0.0,"renderHiddenEdge":true,"type":"outline","visibleEdgeColor":[0.0,1.0,1.0,1]}],"shadowMap":{"esmDistanceScale":2.5,"renderReverseSided":false,"renderSingleSided":true,"type":"ESM"},"unitsScaleFactor":1.0,"useHDR":false,"worldMaterial":2}},"extras":{"animFrameRate":25.0,"coordSystem":"Y_UP_RIGHT"},"name":"Scene","nodes":[0,1,2,3,4,5]}],"textures":[{"extensions":{"S8S_v3d_texture_data":{"colorSpace":"linear"}},"name":"file3","sampler":0,"source":0},{"extensions":{"S8S_v3d_texture_data":{"colorSpace":"linear"}},"name":"file4","sampler":0,"source":1},{"extensions":{"S8S_v3d_texture_data":{"colorSpace":"linear"}},"name":"file3","sampler":0,"source":0}]}