{"accessors":[{"bufferView":0,"componentType":5123,"count":1752,"max":[653],"min":[0],"type":"SCALAR"},{"bufferView":1,"componentType":5126,"count":654,"max":[5.039119720458984,205.79379272460938,30.5240478515625],"min":[-3.969020366668701,-2.3737716674804688,-30.524097442626953],"type":"VEC3"},{"bufferView":2,"componentType":5126,"count":654,"max":[1.0,1.0,1.0],"min":[-1.0,-1.0,-1.0000001192092896],"type":"VEC3"},{"bufferView":3,"componentType":5126,"count":654,"max":[1.0,1.0,1.0,1.0],"min":[-1.0,-1.0,-1.0,1.0],"type":"VEC4"},{"bufferView":4,"componentType":5126,"count":654,"max":[0.99755859375,0.89208984375],"min":[0.0015010833740234375,0.258056640625],"type":"VEC2"},{"bufferView":5,"componentType":5126,"count":654,"max":[0.98388671875,0.98388671875],"min":[0.00806427001953125,0.00806427001953125],"type":"VEC2"}],"asset":{"generator":"Soft8Soft Verge3D for Blender add-on","version":"2.0"},"bufferViews":[{"buffer":0,"byteLength":3504,"byteOffset":0,"target":34963},{"buffer":0,"byteLength":7848,"byteOffset":3504,"target":34962},{"buffer":0,"byteLength":7848,"byteOffset":11352,"target":34962},{"buffer":0,"byteLength":10464,"byteOffset":19200,"target":34962},{"buffer":0,"byteLength":5232,"byteOffset":29664,"target":34962},{"buffer":0,"byteLength":5232,"byteOffset":34896,"target":34962}],"buffers":[{"byteLength":40128,"uri":"RangeTarget.bin"}],"cameras":[{"extensions":{"S8S_v3d_camera_data":{"controls":"ORBIT","enablePan":true,"moveSpeed":1,"orbitMaxDistance":10000,"orbitMaxPolarAngle":3.141592653589793,"orbitMinDistance":0,"orbitMinPolarAngle":0,"orbitTarget":[6.674136161804199,2.0980629920959473,-0.18067830801010132],"rotateSpeed":1,"viewportFitInitialAspect":1,"viewportFitType":"VERTICAL"}},"name":"__DEFAULT__","orthographic":{"xmag":80.71673730954087,"ymag":39.46018656440518,"zfar":1000.0,"znear":-1000.0},"type":"orthographic"}],"extensionsUsed":["S8S_v3d_texture_data","S8S_v3d_material_data","S8S_v3d_camera_data","S8S_v3d_mesh_data","S8S_v3d_node_data","S8S_v3d_scene_data"],"images":[{"uri":"baking_low_target_BaseColor.png"},{"uri":"baking_low_target_Normal.png"}],"materials":[{"extensions":{"S8S_v3d_material_data":{"gtaoVisible":true,"materialIndex":0,"nodeGraph":{"edges":[{"fromNode":0,"fromOutput":0,"toInput":0,"toNode":1},{"fromNode":2,"fromOutput":0,"toInput":22,"toNode":0},{"fromNode":3,"fromOutput":0,"toInput":0,"toNode":0},{"fromNode":4,"fromOutput":0,"toInput":1,"toNode":2}],"nodes":[{"inputs":[[0.800000011920929,0.800000011920929,0.800000011920929,1.0],0.0,[1.0,0.20000000298023224,0.10000000149011612],[0.800000011920929,0.800000011920929,0.800000011920929,1.0],1.399999976158142,0.0,1.0,1.0,0.0,0.5527864098548889,0.0,0.0,0.0,0.5,0.0,0.029999999329447746,1.4500000476837158,0.0,0.0,[0.0,0.0,0.0,1.0],1.0,1.0,[0.0,0.0,0.0],[0.0,0.0,0.0],[0.0,0.0,0.0]],"is_active_output":false,"name":"Principled BSDF","outputs":[[0,0,0,0]],"type":"BSDF_PRINCIPLED_BL"},{"inputs":[[0,0,0,0],[0,0,0,0],[0.0,0.0,0.0]],"is_active_output":true,"name":"Material Output","outputs":[],"type":"OUTPUT_MATERIAL_BL"},{"inputs":[1.0,[0.5,0.5,1.0,1.0]],"is_active_output":false,"name":"Normal Map","outputs":[[0.0,0.0,0.0]],"type":"NORMAL_MAP_BL","uvLayer":""},{"inputs":[[0.0,0.0,0.0]],"is_active_output":false,"name":"Image Texture","outputs":[[0.0,0.0,0.0,0.0],0.0],"projection":"FLAT","projectionBlend":0.0,"texture":0,"type":"TEX_IMAGE_BL"},{"inputs":[[0.0,0.0,0.0]],"is_active_output":false,"name":"Image Texture.001","outputs":[[0.0,0.0,0.0,0.0],0.0],"projection":"FLAT","projectionBlend":0.0,"texture":1,"type":"TEX_IMAGE_BL"}]},"useCastShadows":true}},"name":"target"},{"extensions":{"S8S_v3d_material_data":{"gtaoVisible":true,"materialIndex":0,"nodeGraph":{"edges":[{"fromNode":0,"fromOutput":0,"toInput":0,"toNode":3},{"fromNode":1,"fromOutput":0,"toInput":0,"toNode":0},{"fromNode":2,"fromOutput":0,"toInput":1,"toNode":0}],"nodes":[{"blendType":"MIX","inputs":[0.5,[0.5,0.5,0.5,1.0],[0.0,0.0,0.0,1.0]],"is_active_output":false,"name":"Mix","outputs":[[0.0,0.0,0.0,0.0]],"type":"MIX_RGB_BL","useClamp":false},{"inputs":[],"is_active_output":false,"name":"Light Path","outputs":[0.0,0.0,0.0,0.0,0.0,0.0,0.0,0.0,0.0,0.0,0.0,0.0,0.0],"type":"LIGHT_PATH_BL"},{"inputs":[[0.0,0.0,0.0]],"is_active_output":false,"name":"Environment Texture","outputs":[[0.0,0.0,0.0,0.0]],"projection":"EQUIRECTANGULAR","type":"TEX_ENVIRONMENT_NONE_BL"},{"inputs":[[0.05087608844041824,0.05087608844041824,0.05087608844041824,1.0],1.0],"is_active_output":false,"name":"Background","outputs":[[0,0,0,0]],"type":"BACKGROUND_BL"},{"inputs":[[0,0,0,0],[0,0,0,0]],"is_active_output":true,"name":"World Output","outputs":[],"type":"OUTPUT_WORLD_BL"}]},"useCastShadows":true}},"name":"Verge3D_Environment_World"}],"meshes":[{"extensions":{"S8S_v3d_mesh_data":{"colorLayers":{},"uvLayers":{"LightMapUV":"TEXCOORD_1","UVmap_0":"TEXCOORD_0"}}},"name":"target","primitives":[{"attributes":{"NORMAL":2,"POSITION":1,"TANGENT":3,"TEXCOORD_0":4,"TEXCOORD_1":5},"indices":0,"material":0,"mode":4}]}],"nodes":[{"extensions":{"S8S_v3d_node_data":{"frustumCulling":true,"groupNames":[],"hidden":false,"hidpiCompositing":false,"objectColor":[0.800000011920929,0.800000011920929,0.800000011920929],"objectIndex":0,"renderOrder":0,"useShadows":true}},"mesh":0,"name":"target","scale":[0.10000000149011612,0.10000000149011612,0.10000000149011612],"translation":[294.48809814453125,-5.203782558441162,-0.0]},{"camera":0,"name":"__DEFAULT_CAMERA__","rotation":[1.2101620150417602e-08,-0.7071068286895752,1.2101620150417602e-08,0.7071068286895752],"scale":[1.0,0.9999999403953552,0.9999999403953552],"translation":[-105.43244934082031,2.0980629920959473,-0.18067830801010132]}],"samplers":[{}],"scene":0,"scenes":[{"extensions":{"S8S_v3d_scene_data":{"aaMethod":"AUTO","iblEnvironmentMode":"PMREM","physicallyCorrectLights":true,"pmremMaxTileSize":512,"shadowMap":{"esmDistanceScale":1.0,"renderReverseSided":false,"renderSingleSided":true,"type":"PCFPOISSON"},"toneMapping":{"type":"filmicBlender"},"worldMaterial":1}},"extras":{"animFrameRate":30,"coordSystem":"Z_UP_RIGHT"},"name":"Scene","nodes":[0,1]}],"textures":[{"extensions":{"S8S_v3d_texture_data":{"colorSpace":"srgb"}},"name":"EnvSamplerTex","sampler":0,"source":0},{"extensions":{"S8S_v3d_texture_data":{"colorSpace":"non-color"}},"name":"EnvSamplerTex.001","sampler":0,"source":1}]}
