{"accessors":[{"bufferView":0,"componentType":5123,"count":13929,"max":[4710],"min":[0],"type":"SCALAR"},{"bufferView":1,"componentType":5126,"count":4711,"max":[0.019231146201491356,0.002629193477332592,0.042640384286642075],"min":[-0.018772616982460022,-0.033979643136262894,-0.043459586799144745],"type":"VEC3"},{"bufferView":2,"componentType":5126,"count":4711,"max":[1.0,1.0,1.0],"min":[-1.0,-1.0,-1.0],"type":"VEC3"},{"bufferView":3,"componentType":5126,"count":4711,"max":[1.0,1.0,1.0,1.0],"min":[-1.0,-1.0,-1.0,-1.0],"type":"VEC4"},{"bufferView":4,"componentType":5126,"count":4711,"max":[0.997798502445221,1.0],"min":[0.0,0.001530468463897705],"type":"VEC2"},{"bufferView":5,"componentType":5126,"count":4711,"max":[0.9719228744506836,1.0],"min":[0.0,0.11693239212036133],"type":"VEC2"},{"bufferView":6,"componentType":5121,"count":630,"max":[167],"min":[0],"type":"SCALAR"},{"bufferView":7,"componentType":5126,"count":168,"max":[0.013339604251086712,-0.004987969994544983,0.0426408126950264],"min":[-0.01426011510193348,-0.032587528228759766,0.03951025754213333],"type":"VEC3"},{"bufferView":8,"componentType":5126,"count":168,"max":[0.9970504641532898,0.9971552491188049,0.9994065761566162],"min":[-0.9968442916870117,-0.9971581697463989,-1.0],"type":"VEC3"},{"bufferView":9,"componentType":5126,"count":168,"max":[0.9977710247039795,0.5462559461593628,0.3055139482021332,1.0],"min":[-0.9977587461471558,-0.9975783824920654,-0.999994158744812,1.0],"type":"VEC4"},{"bufferView":10,"componentType":5126,"count":168,"max":[0.9982329607009888,0.9982320896815509],"min":[0.0017615160904824734,0.0021158456802368164],"type":"VEC2"},{"bufferView":11,"componentType":5126,"count":168,"max":[0.0,1.0],"min":[0.0,1.0],"type":"VEC2"}],"asset":{"generator":"Soft8Soft Verge3D for Blender add-on","version":"2.0"},"bufferViews":[{"buffer":0,"byteLength":27858,"byteOffset":0,"target":34963},{"buffer":0,"byteLength":56532,"byteOffset":27860,"target":34962},{"buffer":0,"byteLength":56532,"byteOffset":84392,"target":34962},{"buffer":0,"byteLength":75376,"byteOffset":140924,"target":34962},{"buffer":0,"byteLength":37688,"byteOffset":216300,"target":34962},{"buffer":0,"byteLength":37688,"byteOffset":253988,"target":34962},{"buffer":0,"byteLength":630,"byteOffset":291676,"target":34963},{"buffer":0,"byteLength":2016,"byteOffset":292308,"target":34962},{"buffer":0,"byteLength":2016,"byteOffset":294324,"target":34962},{"buffer":0,"byteLength":2688,"byteOffset":296340,"target":34962},{"buffer":0,"byteLength":1344,"byteOffset":299028,"target":34962},{"buffer":0,"byteLength":1344,"byteOffset":300372,"target":34962}],"buffers":[{"byteLength":301716,"uri":"STREAMLIGHT_TLR_1.bin"}],"cameras":[{"extensions":{"S8S_v3d_camera_data":{"controls":"ORBIT","enablePan":true,"moveSpeed":1,"orbitMaxDistance":10000,"orbitMaxPolarAngle":3.141592653589793,"orbitMinDistance":0,"orbitMinPolarAngle":0,"orbitTarget":[-0.057803381234407425,-1.9019804000854492,-0.03247971460223198],"rotateSpeed":1,"viewportFitInitialAspect":1,"viewportFitType":"VERTICAL"}},"name":"__DEFAULT__","perspective":{"aspectRatio":1,"yfov":0.7853981633974483,"zfar":1000.0,"znear":0.009999999776482582},"type":"perspective"}],"extensions":{"S8S_v3d_data":{"lights":[{"color":[1.0,1.0,1.0],"intensity":1.0,"name":"Sun","profile":"blender","shadow":{"bias":-0.0018,"cameraFar":100,"cameraFov":0,"cameraNear":0.1,"csm":{"maxDistance":200.0},"enabled":true,"expBias":2.5,"mapSize":1024,"radius":1.0,"slopeScaledBias":2.5},"type":"directional"}]}},"extensionsUsed":["S8S_v3d_texture_data","S8S_v3d_material_data","S8S_v3d_camera_data","S8S_v3d_data","S8S_v3d_mesh_data","S8S_v3d_node_data","S8S_v3d_scene_data"],"images":[{"uri":"STREAMLIGHT TLR-1_BaseColor.png"},{"uri":"STREAMLIGHT TLR-1_Normal.png"},{"uri":"STREAMLIGHT TLR-1_OcclusionRoughnessMetallic.png"},{"uri":"STREAMLIGHT TLR-1_Emissive.png"}],"materials":[{"extensions":{"S8S_v3d_material_data":{"gtaoVisible":true,"materialIndex":0,"nodeGraph":{"edges":[{"fromNode":5,"fromOutput":0,"toInput":0,"toNode":0},{"fromNode":3,"fromOutput":0,"toInput":1,"toNode":6},{"fromNode":4,"fromOutput":0,"toInput":0,"toNode":2},{"fromNode":7,"fromOutput":0,"toInput":19,"toNode":5},{"fromNode":2,"fromOutput":1,"toInput":9,"toNode":5},{"fromNode":2,"fromOutput":2,"toInput":6,"toNode":5},{"fromNode":6,"fromOutput":0,"toInput":22,"toNode":5},{"fromNode":1,"fromOutput":0,"toInput":0,"toNode":5}],"nodes":[{"inputs":[[0,0,0,0],[0,0,0,0],[0.0,0.0,0.0]],"is_active_output":true,"name":"Material Output","outputs":[],"type":"OUTPUT_MATERIAL_BL"},{"inputs":[[0.0,0.0,0.0]],"is_active_output":false,"name":"Image Texture","outputs":[[0.0,0.0,0.0,0.0],0.0],"projection":"FLAT","projectionBlend":0.0,"texture":0,"type":"TEX_IMAGE_BL"},{"inputs":[[0.800000011920929,0.800000011920929,0.800000011920929,1.0]],"is_active_output":false,"name":"Separate RGB","outputs":[0.0,0.0,0.0],"type":"SEPRGB_BL"},{"inputs":[[0.0,0.0,0.0]],"is_active_output":false,"name":"Image Texture.001","outputs":[[0.0,0.0,0.0,0.0],0.0],"projection":"FLAT","projectionBlend":0.0,"texture":1,"type":"TEX_IMAGE_BL"},{"inputs":[[0.0,0.0,0.0]],"is_active_output":false,"name":"Image Texture.002","outputs":[[0.0,0.0,0.0,0.0],0.0],"projection":"FLAT","projectionBlend":0.0,"texture":2,"type":"TEX_IMAGE_BL"},{"inputs":[[0.8000000715255737,0.0584932379424572,0.3997114896774292,1.0],0.0,[1.0,0.20000000298023224,0.10000000149011612],[0.800000011920929,0.800000011920929,0.800000011920929,1.0],1.399999976158142,0.0,0.0,1.0,0.0,0.5527864098548889,0.0,0.0,0.0,0.5,0.0,0.029999999329447746,1.4500000476837158,0.0,0.0,[0.0,0.0,0.0,1.0],0.0,1.0,[0.0,0.0,0.0],[0.0,0.0,0.0],[0.0,0.0,0.0]],"is_active_output":false,"name":"Principled BSDF","outputs":[[0,0,0,0]],"type":"BSDF_PRINCIPLED_BL"},{"inputs":[1.0,[0.5,0.5,1.0,1.0]],"is_active_output":false,"name":"Normal Map","outputs":[[0.0,0.0,0.0]],"type":"NORMAL_MAP_BL","uvLayer":""},{"inputs":[[0.0,0.0,0.0]],"is_active_output":false,"name":"Image Texture.003","outputs":[[0.0,0.0,0.0,0.0],0.0],"projection":"FLAT","projectionBlend":0.0,"texture":3,"type":"TEX_IMAGE_BL"}]},"useCastShadows":true}},"name":"STREAMLIGHT TLR-1"},{"alphaMode":"BLEND","doubleSided":true,"extensions":{"S8S_v3d_material_data":{"blendMode":{"blendEquation":32774,"dstRGB":771,"srcRGB":1},"depthWrite":false,"gtaoVisible":false,"materialIndex":0,"nodeGraph":{"edges":[{"fromNode":1,"fromOutput":0,"toInput":0,"toNode":0}],"nodes":[{"inputs":[[0,0,0,0],[0,0,0,0],[0.0,0.0,0.0]],"is_active_output":true,"name":"Material Output","outputs":[],"type":"OUTPUT_MATERIAL_BL"},{"inputs":[[0.800000011920929,0.800000011920929,0.800000011920929,1.0]],"is_active_output":false,"name":"Transparent BSDF","outputs":[[0,0,0,0]],"type":"BSDF_TRANSPARENT_BL"}]},"renderSide":"DOUBLE","useCastShadows":false}},"name":"STREAMLIGHT TLR-1 GLASS"},{"extensions":{"S8S_v3d_material_data":{"gtaoVisible":true,"materialIndex":0,"nodeGraph":{"edges":[{"fromNode":0,"fromOutput":0,"toInput":0,"toNode":3},{"fromNode":1,"fromOutput":0,"toInput":0,"toNode":0},{"fromNode":2,"fromOutput":0,"toInput":1,"toNode":0}],"nodes":[{"blendType":"MIX","inputs":[0.5,[0.5,0.5,0.5,1.0],[0.0,0.0,0.0,1.0]],"is_active_output":false,"name":"Mix","outputs":[[0.0,0.0,0.0,0.0]],"type":"MIX_RGB_BL","useClamp":false},{"inputs":[],"is_active_output":false,"name":"Light Path","outputs":[0.0,0.0,0.0,0.0,0.0,0.0,0.0,0.0,0.0,0.0,0.0,0.0,0.0],"type":"LIGHT_PATH_BL"},{"inputs":[[0.0,0.0,0.0]],"is_active_output":false,"name":"Environment Texture","outputs":[[0.0,0.0,0.0,0.0]],"projection":"EQUIRECTANGULAR","type":"TEX_ENVIRONMENT_NONE_BL"},{"inputs":[[0.05087608844041824,0.05087608844041824,0.05087608844041824,1.0],1.0],"is_active_output":false,"name":"Background","outputs":[[0,0,0,0]],"type":"BACKGROUND_BL"},{"inputs":[[0,0,0,0],[0,0,0,0]],"is_active_output":true,"name":"World Output","outputs":[],"type":"OUTPUT_WORLD_BL"}]},"useCastShadows":true}},"name":"Verge3D_Environment_World"}],"meshes":[{"extensions":{"S8S_v3d_mesh_data":{"colorLayers":{},"uvLayers":{"Texture UVs":"TEXCOORD_1","UVMap":"TEXCOORD_0"}}},"name":"Mesh.001","primitives":[{"attributes":{"NORMAL":2,"POSITION":1,"TANGENT":3,"TEXCOORD_0":4,"TEXCOORD_1":5},"indices":0,"material":0,"mode":4},{"attributes":{"NORMAL":8,"POSITION":7,"TANGENT":9,"TEXCOORD_0":10,"TEXCOORD_1":11},"indices":6,"material":1,"mode":4}]}],"nodes":[{"extensions":{"S8S_v3d_node_data":{"frustumCulling":true,"groupNames":[],"hidden":false,"hidpiCompositing":false,"light":0,"objectColor":[1.0,1.0,1.0],"objectIndex":0,"renderOrder":0}},"name":"Sun","rotation":[-0.7071068286895752,0.0,0.0,0.7071068286895752],"scale":[1.0,0.9999999403953552,0.9999999403953552],"translation":[0.24445271492004395,0.2091708481311798,-0.3036985397338867]},{"extensions":{"S8S_v3d_node_data":{"frustumCulling":true,"groupNames":[],"hidden":false,"hidpiCompositing":false,"objectColor":[0.800000011920929,0.800000011920929,0.800000011920929],"objectIndex":0,"renderOrder":0,"useShadows":true}},"mesh":0,"name":"TLR-1","rotation":[-1.306566446146462e-07,0.7071068286895752,-1.5454318713636894e-08,0.7071067094802856],"scale":[101.5999984741211,101.5999984741211,101.5999984741211],"translation":[5.684341886080802e-14,0.0,2.842170943040401e-14]},{"camera":0,"name":"__DEFAULT_CAMERA__","rotation":[-0.09805332869291306,0.4726601839065552,0.0530175045132637,0.8741664886474609],"scale":[0.9999998211860657,0.9999997615814209,0.9999997615814209],"translation":[7.300723552703857,0.09597215801477432,4.782803058624268]}],"samplers":[{}],"scene":0,"scenes":[{"extensions":{"S8S_v3d_scene_data":{"aaMethod":"AUTO","iblEnvironmentMode":"PMREM","physicallyCorrectLights":true,"pmremMaxTileSize":512,"shadowMap":{"esmDistanceScale":1.0,"renderReverseSided":false,"renderSingleSided":true,"type":"PCFPOISSON"},"toneMapping":{"type":"filmicBlender"},"worldMaterial":2}},"extras":{"animFrameRate":30,"coordSystem":"Z_UP_RIGHT"},"name":"Scene","nodes":[0,1,2]}],"textures":[{"extensions":{"S8S_v3d_texture_data":{"colorSpace":"srgb"}},"name":"STREAMLIGHT TLR-1_BaseColor.tga","sampler":0,"source":0},{"extensions":{"S8S_v3d_texture_data":{"colorSpace":"srgb"}},"name":"STREAMLIGHT TLR-1_Normal.tga","sampler":0,"source":1},{"extensions":{"S8S_v3d_texture_data":{"colorSpace":"srgb"}},"name":"STREAMLIGHT TLR-1_OcclusionRoughnessMetallic.tga","sampler":0,"source":2},{"extensions":{"S8S_v3d_texture_data":{"colorSpace":"srgb"}},"name":"STREAMLIGHT TLR-1_Emissive.tga","sampler":0,"source":3}]}
