{"accessors":[{"bufferView":0,"componentType":5121,"count":630,"max":[167],"min":[0],"type":"SCALAR"},{"bufferView":1,"componentType":5126,"count":168,"max":[0.011351006105542183,-0.005814502947032452,0.049052365124225616],"min":[-0.011182640679180622,-0.02834801748394966,0.0464964285492897],"type":"VEC3"},{"bufferView":2,"componentType":5126,"count":168,"max":[0.9970505237579346,0.9971551895141602,0.9994064569473267],"min":[-0.9968442916870117,-0.9971582293510437,-1.0],"type":"VEC3"},{"bufferView":3,"componentType":5126,"count":168,"max":[0.9977710843086243,0.5462543368339539,0.30551907420158386,1.0],"min":[-0.997758686542511,-0.9975784420967102,-0.999994158744812,1.0],"type":"VEC4"},{"bufferView":4,"componentType":5126,"count":168,"max":[0.9982329607009888,0.9982374852988869],"min":[0.001772795687429607,0.0020641088485717773],"type":"VEC2"},{"bufferView":5,"componentType":5123,"count":11676,"max":[3993],"min":[0],"type":"SCALAR"},{"bufferView":6,"componentType":5126,"count":3994,"max":[0.016614263877272606,0.0031202202662825584,0.04963357374072075],"min":[-0.016428614035248756,-0.03087674453854561,-0.04243297129869461],"type":"VEC3"},{"bufferView":7,"componentType":5126,"count":3994,"max":[1.0,1.0,1.0],"min":[-1.0,-1.0,-1.0],"type":"VEC3"},{"bufferView":8,"componentType":5126,"count":3994,"max":[1.0,1.0,1.0,1.0],"min":[-1.0,-1.0,-1.0,-1.0],"type":"VEC4"},{"bufferView":9,"componentType":5126,"count":3994,"max":[0.9982027411460876,0.9982044467469677],"min":[0.0017852428136393428,0.0018225312232971191],"type":"VEC2"}],"asset":{"generator":"Soft8Soft Verge3D for Blender add-on","version":"2.0"},"bufferViews":[{"buffer":0,"byteLength":630,"byteOffset":0,"target":34963},{"buffer":0,"byteLength":2016,"byteOffset":632,"target":34962},{"buffer":0,"byteLength":2016,"byteOffset":2648,"target":34962},{"buffer":0,"byteLength":2688,"byteOffset":4664,"target":34962},{"buffer":0,"byteLength":1344,"byteOffset":7352,"target":34962},{"buffer":0,"byteLength":23352,"byteOffset":8696,"target":34963},{"buffer":0,"byteLength":47928,"byteOffset":32048,"target":34962},{"buffer":0,"byteLength":47928,"byteOffset":79976,"target":34962},{"buffer":0,"byteLength":63904,"byteOffset":127904,"target":34962},{"buffer":0,"byteLength":31952,"byteOffset":191808,"target":34962}],"buffers":[{"byteLength":223760,"uri":"SUREFIRE_X300U.bin"}],"cameras":[{"extensions":{"S8S_v3d_camera_data":{"controls":"ORBIT","enablePan":true,"moveSpeed":1,"orbitMaxDistance":10000,"orbitMaxPolarAngle":3.141592653589793,"orbitMinDistance":0,"orbitMinPolarAngle":0,"orbitTarget":[5.029054164886475,1.7217389345169067,-4.028456211090088],"rotateSpeed":1,"viewportFitInitialAspect":1,"viewportFitType":"VERTICAL"}},"name":"__DEFAULT__","perspective":{"aspectRatio":1,"yfov":0.7853981633974483,"zfar":1000.0,"znear":0.009999999776482582},"type":"perspective"}],"extensions":{"S8S_v3d_data":{"lights":[{"color":[1.0,1.0,1.0],"intensity":1.0,"name":"Sun","profile":"blender","shadow":{"bias":-0.0018,"cameraFar":100,"cameraFov":0,"cameraNear":0.1,"csm":{"maxDistance":200.0},"enabled":true,"expBias":2.5,"mapSize":1024,"radius":1.0,"slopeScaledBias":2.5},"type":"directional"}]}},"extensionsUsed":["S8S_v3d_texture_data","S8S_v3d_material_data","S8S_v3d_camera_data","S8S_v3d_data","S8S_v3d_mesh_data","S8S_v3d_node_data","S8S_v3d_scene_data"],"images":[{"uri":"SUREFIRE X300U_OcclusionRoughnessMetallic.png"},{"uri":"SUREFIRE X300U_Normal.png"},{"uri":"SUREFIRE X300U_Emissive.png"},{"uri":"SUREFIRE X300U_BaseColor.png"}],"materials":[{"extensions":{"S8S_v3d_material_data":{"gtaoVisible":true,"materialIndex":0,"nodeGraph":{"edges":[{"fromNode":1,"fromOutput":0,"toInput":0,"toNode":0},{"fromNode":4,"fromOutput":0,"toInput":1,"toNode":3},{"fromNode":2,"fromOutput":0,"toInput":0,"toNode":7},{"fromNode":6,"fromOutput":0,"toInput":0,"toNode":1},{"fromNode":7,"fromOutput":1,"toInput":9,"toNode":1},{"fromNode":7,"fromOutput":2,"toInput":6,"toNode":1},{"fromNode":3,"fromOutput":0,"toInput":22,"toNode":1},{"fromNode":5,"fromOutput":0,"toInput":19,"toNode":1}],"nodes":[{"inputs":[[0,0,0,0],[0,0,0,0],[0.0,0.0,0.0]],"is_active_output":true,"name":"Material Output","outputs":[],"type":"OUTPUT_MATERIAL_BL"},{"inputs":[[0.0030858612153679132,0.8000000715255737,0.08899286389350891,1.0],0.0,[1.0,0.20000000298023224,0.10000000149011612],[0.800000011920929,0.800000011920929,0.800000011920929,1.0],1.399999976158142,0.0,0.0,1.0,0.0,0.5527864098548889,0.0,0.0,0.0,0.5,0.0,0.029999999329447746,1.4500000476837158,0.0,0.0,[0.0,0.0,0.0,1.0],0.0,1.0,[0.0,0.0,0.0],[0.0,0.0,0.0],[0.0,0.0,0.0]],"is_active_output":false,"name":"Principled BSDF","outputs":[[0,0,0,0]],"type":"BSDF_PRINCIPLED_BL"},{"inputs":[[0.0,0.0,0.0]],"is_active_output":false,"name":"Image Texture.002","outputs":[[0.0,0.0,0.0,0.0],0.0],"projection":"FLAT","projectionBlend":0.0,"texture":0,"type":"TEX_IMAGE_BL"},{"inputs":[1.0,[0.5,0.5,1.0,1.0]],"is_active_output":false,"name":"Normal Map.001","outputs":[[0.0,0.0,0.0]],"type":"NORMAL_MAP_BL","uvLayer":""},{"inputs":[[0.0,0.0,0.0]],"is_active_output":false,"name":"Image Texture.001","outputs":[[0.0,0.0,0.0,0.0],0.0],"projection":"FLAT","projectionBlend":0.0,"texture":1,"type":"TEX_IMAGE_BL"},{"inputs":[[0.0,0.0,0.0]],"is_active_output":false,"name":"Image Texture.004","outputs":[[0.0,0.0,0.0,0.0],0.0],"projection":"FLAT","projectionBlend":0.0,"texture":2,"type":"TEX_IMAGE_BL"},{"inputs":[[0.0,0.0,0.0]],"is_active_output":false,"name":"Image Texture.003","outputs":[[0.0,0.0,0.0,0.0],0.0],"projection":"FLAT","projectionBlend":0.0,"texture":3,"type":"TEX_IMAGE_BL"},{"inputs":[[0.800000011920929,0.800000011920929,0.800000011920929,1.0]],"is_active_output":false,"name":"Separate RGB","outputs":[0.0,0.0,0.0],"type":"SEPRGB_BL"}]},"useCastShadows":true}},"name":"SUREFIRE X300U"},{"alphaMode":"BLEND","doubleSided":true,"extensions":{"S8S_v3d_material_data":{"blendMode":{"blendEquation":32774,"dstRGB":771,"srcRGB":1},"depthWrite":false,"gtaoVisible":false,"materialIndex":0,"nodeGraph":{"edges":[{"fromNode":1,"fromOutput":0,"toInput":0,"toNode":0}],"nodes":[{"inputs":[[0,0,0,0],[0,0,0,0],[0.0,0.0,0.0]],"is_active_output":true,"name":"Material Output","outputs":[],"type":"OUTPUT_MATERIAL_BL"},{"inputs":[[0.800000011920929,0.800000011920929,0.800000011920929,1.0]],"is_active_output":false,"name":"Transparent BSDF","outputs":[[0,0,0,0]],"type":"BSDF_TRANSPARENT_BL"}]},"renderSide":"DOUBLE","useCastShadows":false}},"name":"SUREFIRE X300U-A GLASS"},{"extensions":{"S8S_v3d_material_data":{"gtaoVisible":true,"materialIndex":0,"nodeGraph":{"edges":[{"fromNode":0,"fromOutput":0,"toInput":0,"toNode":3},{"fromNode":1,"fromOutput":0,"toInput":0,"toNode":0},{"fromNode":2,"fromOutput":0,"toInput":1,"toNode":0}],"nodes":[{"blendType":"MIX","inputs":[0.5,[0.5,0.5,0.5,1.0],[0.0,0.0,0.0,1.0]],"is_active_output":false,"name":"Mix","outputs":[[0.0,0.0,0.0,0.0]],"type":"MIX_RGB_BL","useClamp":false},{"inputs":[],"is_active_output":false,"name":"Light Path","outputs":[0.0,0.0,0.0,0.0,0.0,0.0,0.0,0.0,0.0,0.0,0.0,0.0,0.0],"type":"LIGHT_PATH_BL"},{"inputs":[[0.0,0.0,0.0]],"is_active_output":false,"name":"Environment Texture","outputs":[[0.0,0.0,0.0,0.0]],"projection":"EQUIRECTANGULAR","type":"TEX_ENVIRONMENT_NONE_BL"},{"inputs":[[0.05087608844041824,0.05087608844041824,0.05087608844041824,1.0],1.0],"is_active_output":false,"name":"Background","outputs":[[0,0,0,0]],"type":"BACKGROUND_BL"},{"inputs":[[0,0,0,0],[0,0,0,0]],"is_active_output":true,"name":"World Output","outputs":[],"type":"OUTPUT_WORLD_BL"}]},"useCastShadows":true}},"name":"Verge3D_Environment_World"}],"meshes":[{"extensions":{"S8S_v3d_mesh_data":{"colorLayers":{},"uvLayers":{"UVMap":"TEXCOORD_0"}}},"name":"Mesh","primitives":[{"attributes":{"NORMAL":2,"POSITION":1,"TANGENT":3,"TEXCOORD_0":4},"indices":0,"material":1,"mode":4},{"attributes":{"NORMAL":7,"POSITION":6,"TANGENT":8,"TEXCOORD_0":9},"indices":5,"material":0,"mode":4}]}],"nodes":[{"extensions":{"S8S_v3d_node_data":{"frustumCulling":true,"groupNames":[],"hidden":false,"hidpiCompositing":false,"light":0,"objectColor":[1.0,1.0,1.0],"objectIndex":0,"renderOrder":0}},"name":"Sun","rotation":[-0.7071068286895752,0.0,0.0,0.7071068286895752],"scale":[1.0,0.9999999403953552,0.9999999403953552],"translation":[0.24445271492004395,0.2091708481311798,-0.3036985397338867]},{"extensions":{"S8S_v3d_node_data":{"frustumCulling":true,"groupNames":[],"hidden":false,"hidpiCompositing":false,"objectColor":[0.800000011920929,0.800000011920929,0.800000011920929],"objectIndex":0,"renderOrder":0,"useShadows":true}},"mesh":0,"name":"X300U-A","rotation":[-9.961050864149001e-07,0.7071068286895752,-8.809024052425229e-07,0.7071067094802856],"scale":[101.5999984741211,101.5999984741211,101.5999984741211],"translation":[0.0,1.1920928955078125e-07,4.547473508864641e-13]},{"camera":0,"name":"__DEFAULT_CAMERA__","rotation":[-0.04420015960931778,0.42527079582214355,0.020800219848752022,0.9037469029426575],"scale":[0.9999998807907104,0.9999997019767761,0.9999997615814209],"translation":[29.808273315429688,4.874998569488525,16.47071647644043]}],"samplers":[{}],"scene":0,"scenes":[{"extensions":{"S8S_v3d_scene_data":{"aaMethod":"AUTO","iblEnvironmentMode":"PMREM","physicallyCorrectLights":true,"pmremMaxTileSize":512,"shadowMap":{"esmDistanceScale":1.0,"renderReverseSided":false,"renderSingleSided":true,"type":"PCFPOISSON"},"toneMapping":{"type":"filmicBlender"},"worldMaterial":2}},"extras":{"animFrameRate":30,"coordSystem":"Z_UP_RIGHT"},"name":"Scene","nodes":[0,1,2]}],"textures":[{"extensions":{"S8S_v3d_texture_data":{"colorSpace":"srgb"}},"name":"SUREFIRE X300U_OcclusionRoughnessMetallic.tga","sampler":0,"source":0},{"extensions":{"S8S_v3d_texture_data":{"colorSpace":"srgb"}},"name":"SUREFIRE X300U_Normal.tga","sampler":0,"source":1},{"extensions":{"S8S_v3d_texture_data":{"colorSpace":"srgb"}},"name":"SUREFIRE X300U_Emissive.tga","sampler":0,"source":2},{"extensions":{"S8S_v3d_texture_data":{"colorSpace":"srgb"}},"name":"SUREFIRE X300U_BaseColor.tga","sampler":0,"source":3}]}
