{"accessors":[{"bufferView":0,"componentType":5121,"count":300,"max":[93],"min":[0],"type":"SCALAR"},{"bufferView":1,"componentType":5126,"count":94,"max":[0.014127210713922977,0.03547896817326546,-0.021685145795345306],"min":[-0.014127261005342007,0.010082270950078964,-0.032815396785736084],"type":"VEC3"},{"bufferView":2,"componentType":5126,"count":94,"max":[0.04433107376098633,0.3439271152019501,0.9792429208755493],"min":[-0.04434383288025856,-0.34392818808555603,-0.9792413115501404],"type":"VEC3"},{"bufferView":3,"componentType":5126,"count":94,"max":[0.000294937432045117,-0.938995897769928,-0.20269013941287994,1.0],"min":[-0.00028673760243691504,-0.9792428612709045,-0.34392818808555603,-1.0],"type":"VEC4"},{"bufferView":4,"componentType":5126,"count":94,"max":[0.9403224587440491,0.9992432982544415],"min":[0.0007567017455585301,0.0007567405700683594],"type":"VEC2"},{"bufferView":5,"componentType":5123,"count":7050,"max":[2526],"min":[0],"type":"SCALAR"},{"bufferView":6,"componentType":5126,"count":2527,"max":[0.017612744122743607,0.03732014074921608,0.02155924029648304],"min":[-0.017612753435969353,-0.000566728413105011,-0.0348348468542099],"type":"VEC3"},{"bufferView":7,"componentType":5126,"count":2527,"max":[1.0,1.0,1.0],"min":[-1.0,-1.0,-1.0],"type":"VEC3"},{"bufferView":8,"componentType":5126,"count":2527,"max":[1.0,1.0,1.0,1.0],"min":[-1.0,-1.0,-1.0,-1.0],"type":"VEC4"},{"bufferView":9,"componentType":5126,"count":2527,"max":[0.9973952174186707,0.9981587817892432],"min":[0.001842409372329712,0.001852869987487793],"type":"VEC2"}],"asset":{"generator":"Soft8Soft Verge3D for Blender add-on","version":"2.0"},"bufferViews":[{"buffer":0,"byteLength":300,"byteOffset":0,"target":34963},{"buffer":0,"byteLength":1128,"byteOffset":300,"target":34962},{"buffer":0,"byteLength":1128,"byteOffset":1428,"target":34962},{"buffer":0,"byteLength":1504,"byteOffset":2556,"target":34962},{"buffer":0,"byteLength":752,"byteOffset":4060,"target":34962},{"buffer":0,"byteLength":14100,"byteOffset":4812,"target":34963},{"buffer":0,"byteLength":30324,"byteOffset":18912,"target":34962},{"buffer":0,"byteLength":30324,"byteOffset":49236,"target":34962},{"buffer":0,"byteLength":40432,"byteOffset":79560,"target":34962},{"buffer":0,"byteLength":20216,"byteOffset":119992,"target":34962}],"buffers":[{"byteLength":140208,"uri":"TRIJICON_SRO.bin"}],"cameras":[{"extensions":{"S8S_v3d_camera_data":{"controls":"ORBIT","enablePan":true,"moveSpeed":1,"orbitMaxDistance":10000,"orbitMaxPolarAngle":3.141592653589793,"orbitMinDistance":0,"orbitMinPolarAngle":0,"orbitTarget":[3.751849889755249,2.5501949787139893,-4.028456211090088],"rotateSpeed":1,"viewportFitInitialAspect":1,"viewportFitType":"VERTICAL"}},"name":"__DEFAULT__","perspective":{"aspectRatio":1,"yfov":0.7853981633974483,"zfar":1000.0,"znear":0.009999999776482582},"type":"perspective"}],"extensionsUsed":["S8S_v3d_texture_data","S8S_v3d_material_data","S8S_v3d_camera_data","S8S_v3d_mesh_data","S8S_v3d_node_data","S8S_v3d_scene_data"],"images":[{"uri":"low_TRIJICON_SRO_BaseColor.png"},{"uri":"low_TRIJICON_SRO_OcclusionRoughnessMetallic.png"},{"uri":"low_TRIJICON_SRO_Normal.png"},{"uri":"low_TRIJICON_SRO_GLASS_Normal.png"}],"materials":[{"extensions":{"S8S_v3d_material_data":{"gtaoVisible":true,"materialIndex":0,"nodeGraph":{"edges":[{"fromNode":3,"fromOutput":0,"toInput":0,"toNode":1},{"fromNode":0,"fromOutput":0,"toInput":22,"toNode":3},{"fromNode":2,"fromOutput":0,"toInput":0,"toNode":3},{"fromNode":4,"fromOutput":0,"toInput":0,"toNode":6},{"fromNode":6,"fromOutput":1,"toInput":1,"toNode":7},{"fromNode":6,"fromOutput":2,"toInput":6,"toNode":3},{"fromNode":5,"fromOutput":0,"toInput":1,"toNode":0},{"fromNode":7,"fromOutput":0,"toInput":9,"toNode":3}],"nodes":[{"inputs":[0.0,[0.5,0.5,1.0,1.0]],"is_active_output":false,"name":"Normal Map","outputs":[[0.0,0.0,0.0]],"type":"NORMAL_MAP_BL","uvLayer":""},{"inputs":[[0,0,0,0],[0,0,0,0],[0.0,0.0,0.0]],"is_active_output":true,"name":"Material Output","outputs":[],"type":"OUTPUT_MATERIAL_BL"},{"inputs":[[0.0,0.0,0.0]],"is_active_output":false,"name":"Image Texture","outputs":[[0.0,0.0,0.0,0.0],0.0],"projection":"FLAT","projectionBlend":0.0,"texture":0,"type":"TEX_IMAGE_BL"},{"inputs":[[0.8000000715255737,0.0,0.32168126106262207,1.0],0.0,[1.0,0.20000000298023224,0.10000000149011612],[0.800000011920929,0.800000011920929,0.800000011920929,1.0],1.399999976158142,0.0,0.0,0.5,0.0,0.5,0.0,0.0,0.0,0.5,0.0,0.029999999329447746,1.4500000476837158,0.0,0.0,[0.0,0.0,0.0,1.0],1.0,1.0,[0.0,0.0,0.0],[0.0,0.0,0.0],[0.0,0.0,0.0]],"is_active_output":false,"name":"Principled BSDF","outputs":[[0,0,0,0]],"type":"BSDF_PRINCIPLED_BL"},{"inputs":[[0.0,0.0,0.0]],"is_active_output":false,"name":"Image Texture.001","outputs":[[0.0,0.0,0.0,0.0],0.0],"projection":"FLAT","projectionBlend":0.0,"texture":1,"type":"TEX_IMAGE_BL"},{"inputs":[[0.0,0.0,0.0]],"is_active_output":false,"name":"Image Texture.002","outputs":[[0.0,0.0,0.0,0.0],0.0],"projection":"FLAT","projectionBlend":0.0,"texture":2,"type":"TEX_IMAGE_BL"},{"inputs":[[0.800000011920929,0.800000011920929,0.800000011920929,1.0]],"is_active_output":false,"name":"Separate RGB","outputs":[0.0,0.0,0.0],"type":"SEPRGB_BL"},{"inputs":[0.15000000596046448,[0.0,0.0,0.0,1.0]],"is_active_output":false,"name":"Invert","outputs":[[0.0,0.0,0.0,0.0]],"type":"INVERT_BL"}]},"useCastShadows":true}},"name":"TRIJICON_SRO"},{"alphaMode":"BLEND","doubleSided":true,"extensions":{"S8S_v3d_material_data":{"blendMode":{"blendEquation":32774,"dstRGB":771,"srcRGB":1},"depthWrite":false,"gtaoVisible":false,"materialIndex":0,"nodeGraph":{"edges":[{"fromNode":1,"fromOutput":0,"toInput":1,"toNode":2},{"fromNode":3,"fromOutput":0,"toInput":0,"toNode":0}],"nodes":[{"inputs":[[0,0,0,0],[0,0,0,0],[0.0,0.0,0.0]],"is_active_output":true,"name":"Material Output","outputs":[],"type":"OUTPUT_MATERIAL_BL"},{"inputs":[[0.0,0.0,0.0]],"is_active_output":false,"name":"Image Texture.001","outputs":[[0.0,0.0,0.0,0.0],0.0],"projection":"FLAT","projectionBlend":0.0,"texture":3,"type":"TEX_IMAGE_BL"},{"inputs":[10.0,[0.5,0.5,1.0,1.0]],"is_active_output":false,"name":"Normal Map.001","outputs":[[0.0,0.0,0.0]],"type":"NORMAL_MAP_BL","uvLayer":""},{"inputs":[[1.0,0.7883875370025635,0.6859999895095825,1.0]],"is_active_output":false,"name":"Transparent BSDF","outputs":[[0,0,0,0]],"type":"BSDF_TRANSPARENT_BL"}]},"renderSide":"DOUBLE","useCastShadows":false}},"name":"TRIJICON_SRO_GLASS"},{"extensions":{"S8S_v3d_material_data":{"gtaoVisible":true,"materialIndex":0,"nodeGraph":{"edges":[{"fromNode":0,"fromOutput":0,"toInput":0,"toNode":3},{"fromNode":1,"fromOutput":0,"toInput":0,"toNode":0},{"fromNode":2,"fromOutput":0,"toInput":1,"toNode":0}],"nodes":[{"blendType":"MIX","inputs":[0.5,[0.5,0.5,0.5,1.0],[0.0,0.0,0.0,1.0]],"is_active_output":false,"name":"Mix","outputs":[[0.0,0.0,0.0,0.0]],"type":"MIX_RGB_BL","useClamp":false},{"inputs":[],"is_active_output":false,"name":"Light Path","outputs":[0.0,0.0,0.0,0.0,0.0,0.0,0.0,0.0,0.0,0.0,0.0,0.0,0.0],"type":"LIGHT_PATH_BL"},{"inputs":[[0.0,0.0,0.0]],"is_active_output":false,"name":"Environment Texture","outputs":[[0.0,0.0,0.0,0.0]],"projection":"EQUIRECTANGULAR","type":"TEX_ENVIRONMENT_NONE_BL"},{"inputs":[[0.05087608844041824,0.05087608844041824,0.05087608844041824,1.0],1.0],"is_active_output":false,"name":"Background","outputs":[[0,0,0,0]],"type":"BACKGROUND_BL"},{"inputs":[[0,0,0,0],[0,0,0,0]],"is_active_output":true,"name":"World Output","outputs":[],"type":"OUTPUT_WORLD_BL"}]},"useCastShadows":true}},"name":"Verge3D_Environment_World"}],"meshes":[{"extensions":{"S8S_v3d_mesh_data":{"colorLayers":{},"uvLayers":{"UVMap":"TEXCOORD_0"}}},"name":"Cube.031","primitives":[{"attributes":{"NORMAL":2,"POSITION":1,"TANGENT":3,"TEXCOORD_0":4},"indices":0,"material":1,"mode":4}]},{"extensions":{"S8S_v3d_mesh_data":{"colorLayers":{},"uvLayers":{"UVMap":"TEXCOORD_0"}}},"name":"Cube.040","primitives":[{"attributes":{"NORMAL":7,"POSITION":6,"TANGENT":8,"TEXCOORD_0":9},"indices":5,"material":0,"mode":4}]}],"nodes":[{"children":[2,4],"extensions":{"S8S_v3d_node_data":{"frustumCulling":true,"groupNames":[],"hidden":false,"hidpiCompositing":false,"objectColor":[0.800000011920929,0.800000011920929,0.800000011920929],"objectIndex":0,"renderOrder":0,"useShadows":true}},"mesh":1,"name":"TRIJICON_SRO","rotation":[-8.881784197001252e-16,-0.7071068286895752,8.881783138210068e-16,0.7071067094802856],"scale":[100.0,100.0,100.0]},{"children":[6],"extensions":{"S8S_v3d_node_data":{"frustumCulling":true,"groupNames":[],"hidden":false,"hidpiCompositing":false,"objectColor":[1.0,1.0,1.0],"objectIndex":0,"renderOrder":0}},"name":"ADS_Camera","translation":[-23.53864097595215,2.1365020275115967,-4.52421902294484e-22]},{"children":[1],"name":"v3d_Proxy_Node_0_ADS_Camera","rotation":[8.881785255792436e-16,0.7071068286895752,-8.88178366760566e-16,0.7071067094802856],"scale":[0.009999999776482582,0.009999999776482582,0.009999999776482582],"translation":[-4.767350958445604e-10,1.4167059319631656e-24,-0.0029261792078614235]},{"extensions":{"S8S_v3d_node_data":{"frustumCulling":true,"groupNames":[],"hidden":false,"hidpiCompositing":false,"objectColor":[0.800000011920929,0.800000011920929,0.800000011920929],"objectIndex":0,"renderOrder":0,"useShadows":true}},"mesh":0,"name":"SRO_glass","rotation":[-8.881784197001252e-16,-0.7071068286895752,8.881783138210068e-16,0.7071067094802856],"translation":[0.01894703134894371,0.08499634265899658,-0.0]},{"children":[3],"name":"v3d_Proxy_Node_0_SRO_glass","rotation":[8.881784197001252e-16,0.7071068286895752,-8.881783138210068e-16,0.7071067094802856],"translation":[3.0868632094893655e-09,-0.08499634265899658,0.01894703134894371]},{"extensions":{"S8S_v3d_node_data":{"frustumCulling":true,"groupNames":[],"hidden":false,"hidpiCompositing":false,"objectColor":[1.0,1.0,1.0],"objectIndex":0,"renderOrder":0}},"name":"ADS_Target","translation":[15.062582015991211,0.6247420907020569,6.938893903907228e-16]},{"children":[5],"name":"v3d_Proxy_Node_0_ADS_Target","rotation":[-1.0587911840678754e-22,4.484155085839415e-44,-0.0,1.0],"translation":[23.53864097595215,-0.6500000357627869,1.376428615018885e-22]},{"camera":0,"name":"__DEFAULT_CAMERA__","rotation":[-0.15177977085113525,-0.12385787814855576,-0.019174298271536827,0.9804359674453735],"scale":[1.0,0.9999999403953552,0.9999999403953552],"translation":[-2.6314024925231934,10.692429542541504,20.832672119140625]}],"samplers":[{}],"scene":0,"scenes":[{"extensions":{"S8S_v3d_scene_data":{"aaMethod":"AUTO","iblEnvironmentMode":"PMREM","physicallyCorrectLights":true,"pmremMaxTileSize":512,"shadowMap":{"esmDistanceScale":1.0,"renderReverseSided":false,"renderSingleSided":true,"type":"PCFPOISSON"},"toneMapping":{"type":"filmicBlender"},"worldMaterial":2}},"extras":{"animFrameRate":30,"coordSystem":"Z_UP_RIGHT"},"name":"Scene","nodes":[0,7]}],"textures":[{"extensions":{"S8S_v3d_texture_data":{"colorSpace":"srgb"}},"name":"low_TRIJICON_SRO_BaseColor.tga","sampler":0,"source":0},{"extensions":{"S8S_v3d_texture_data":{"colorSpace":"srgb"}},"name":"low_TRIJICON_SRO_OcclusionRoughnessMetallic.tga","sampler":0,"source":1},{"extensions":{"S8S_v3d_texture_data":{"colorSpace":"srgb"}},"name":"low_TRIJICON_SRO_Normal.tga","sampler":0,"source":2},{"extensions":{"S8S_v3d_texture_data":{"colorSpace":"srgb"}},"name":"low_TRIJICON_SRO_GLASS_Normal.tga","sampler":0,"source":3}]}
